<svg xmlns="http://www.w3.org/2000/svg" version="1.1" xlink="http://www.w3.org/1999/xlink" xmlnsSvgjs="http://svgjs.com/svgjs" width="147.00000000000003" height="147"><defs id="SvgjsDefs358570"/><g id="SvgjsG358571" transform="scale(0.7756310029037303)" opacity="1"><g id="SvgjsG358572" class="oKhtsgYTC" transform="translate(0, 0) scale(1.895231101511879)" light-content="false" non-strokable="false" fill="#f4b8e4"><rect width="100" height="100" rx="10"/></g><g id="SvgjsG358573" class="bOs52esllV" transform="translate(37.24627567623798, 37.16490594451959) scale(1.1452922460389823)" light-content="true" non-strokable="false" fill="#ffffff"><path d="M52.598 12.127a2.998 2.998 0 0 0-5.196 0l-42 72.746A3 3 0 0 0 8 89.373h84.02a3 3 0 0 0 2.422-4.772L52.598 12.127zM13.196 83.373L50 19.627l36.804 63.746H13.196z"/><path d="M47.402 44.127L33.115 68.873a3 3 0 0 0 2.598 4.5h28.594a3 3 0 0 0 2.422-4.772L52.598 44.127a2.998 2.998 0 0 0-5.196 0zm11.689 23.246H40.909L50 51.627l9.091 15.746z"/></g></g></svg>
