<svg xmlns="http://www.w3.org/2000/svg" version="1.1" xlink="http://www.w3.org/1999/xlink" xmlnsSvgjs="http://svgjs.com/svgjs" width="162.98056155507555" height="147"><defs id="SvgjsDefs356804"/><g id="SvgjsG356805" transform="scale(0.5159705159705159)" opacity="1"><g id="SvgjsG356806" class="QBceeCZpu" transform="translate(63.174370050395964, 0) scale(1.8952311015118792)" light-content="false" non-strokable="false" fill="#0e5686"><rect width="100" height="100" rx="10"/></g><g id="SvgjsG356807" class="D3ayQpDVv5" transform="translate(100.65909065104003, 37.4980144236404) scale(1.1452922460389825)" light-content="true" non-strokable="false" fill="#ffffff"><path d="M52.598 12.127a2.998 2.998 0 0 0-5.196 0l-42 72.746A3 3 0 0 0 8 89.373h84.02a3 3 0 0 0 2.422-4.772L52.598 12.127zM13.196 83.373L50 19.627l36.804 63.746H13.196z"/><path d="M47.402 44.127L33.115 68.873a3 3 0 0 0 2.598 4.5h28.594a3 3 0 0 0 2.422-4.772L52.598 44.127a2.998 2.998 0 0 0-5.196 0zm11.689 23.246H40.909L50 51.627l9.091 15.746z"/></g><g id="SvgjsG356808" class="text" transform="translate(159.43, 284.1531932214654) scale(1)" light-content="false" fill="#333333"><path d="M-151.23 0.16C-148.73 0.55 -146.37 0.75 -144.13 0.75C-139.66 0.75 -135.83 0.03 -132.65 -1.4C-129.47 -2.83 -127.04 -4.88 -125.37 -7.55C-123.7 -10.22 -122.87 -13.38 -122.87 -17.04C-122.87 -21.43 -124.05 -24.97 -126.4 -27.67C-128.75 -30.37 -132.18 -32.48 -136.68 -34L-140.58 -35.3C-142.42 -35.93 -143.85 -36.57 -144.86 -37.22C-145.87 -37.86 -146.59 -38.59 -147.01 -39.41C-147.43 -40.22 -147.64 -41.22 -147.64 -42.4C-147.64 -46.98 -143.93 -49.27 -136.52 -49.27C-132.63 -49.27 -129.04 -48.77 -125.75 -47.77L-125.75 -57.63C-127.33 -58.1 -129.15 -58.47 -131.21 -58.73C-133.28 -59 -135.41 -59.13 -137.62 -59.13C-142.41 -59.13 -146.42 -58.42 -149.67 -57.02C-152.92 -55.61 -155.36 -53.59 -156.99 -50.96C-158.62 -48.33 -159.43 -45.18 -159.43 -41.5C-159.43 -37.29 -158.28 -33.82 -155.98 -31.08C-153.68 -28.35 -150.49 -26.28 -146.42 -24.89L-142.47 -23.59C-140.45 -22.9 -138.87 -22.21 -137.74 -21.52C-136.61 -20.82 -135.81 -20.04 -135.33 -19.17C-134.86 -18.3 -134.62 -17.25 -134.62 -16.01C-134.62 -11.41 -137.87 -9.11 -144.37 -9.11C-148.73 -9.11 -153.27 -9.87 -157.98 -11.4L-157.98 -1.54C-155.98 -0.8 -153.73 -0.24 -151.23 0.16Z M-109.26 -57.39L-109.26 0L-97.55 0L-97.55 -17.12L-95.93 -17.08C-94.67 -17.03 -93.65 -17 -92.89 -17C-85.34 -17 -79.61 -18.78 -75.69 -22.35C-71.78 -25.91 -69.82 -31.12 -69.82 -37.99C-69.82 -45.22 -71.79 -50.54 -75.73 -53.96C-79.68 -57.38 -85.65 -59.09 -93.64 -59.09C-98.74 -59.09 -103.95 -58.52 -109.26 -57.39ZM-84.02 -29.17C-85.88 -27.37 -88.78 -26.47 -92.69 -26.47C-94.56 -26.47 -96.18 -26.57 -97.55 -26.78L-97.55 -49.19C-95.94 -49.48 -94.29 -49.62 -92.58 -49.62C-88.68 -49.62 -85.82 -48.68 -83.98 -46.8C-82.14 -44.92 -81.22 -41.93 -81.22 -37.83C-81.22 -33.86 -82.15 -30.97 -84.02 -29.17Z M-50.67 -6.51C-46.5 -1.67 -40.73 0.75 -33.37 0.75C-26.01 0.75 -20.25 -1.67 -16.09 -6.51C-11.94 -11.35 -9.86 -18.91 -9.86 -29.19C-9.86 -39.47 -11.94 -47.03 -16.09 -51.87C-20.25 -56.71 -26.01 -59.13 -33.37 -59.13C-40.73 -59.13 -46.5 -56.71 -50.67 -51.87C-54.83 -47.03 -56.92 -39.47 -56.92 -29.19C-56.92 -18.91 -54.83 -11.35 -50.67 -6.51ZM-27.14 -10.91C-28.82 -9.63 -30.9 -8.99 -33.37 -8.99C-35.87 -8.99 -37.96 -9.64 -39.64 -10.93C-41.32 -12.21 -42.61 -14.36 -43.51 -17.38C-44.4 -20.39 -44.85 -24.42 -44.85 -29.47C-44.85 -34.33 -44.4 -38.23 -43.51 -41.16C-42.61 -44.09 -41.32 -46.2 -39.64 -47.47C-37.96 -48.75 -35.87 -49.38 -33.37 -49.38C-30.87 -49.38 -28.78 -48.74 -27.1 -47.45C-25.42 -46.16 -24.13 -44.01 -23.23 -41C-22.34 -37.99 -21.89 -33.96 -21.89 -28.91C-21.89 -24.05 -22.35 -20.15 -23.25 -17.22C-24.16 -14.29 -25.45 -12.18 -27.14 -10.91Z M14.36 0L26.07 0L26.07 -48L42.21 -48L42.21 -58.38L-1.78 -58.38L-1.78 -48L14.36 -48Z M56.54 -6.51C60.71 -1.67 66.48 0.75 73.84 0.75C81.2 0.75 86.96 -1.67 91.12 -6.51C95.27 -11.35 97.35 -18.91 97.35 -29.19C97.35 -39.47 95.27 -47.03 91.12 -51.87C86.96 -56.71 81.2 -59.13 73.84 -59.13C66.48 -59.13 60.71 -56.71 56.54 -51.87C52.38 -47.03 50.29 -39.47 50.29 -29.19C50.29 -18.91 52.38 -11.35 56.54 -6.51ZM80.07 -10.91C78.39 -9.63 76.31 -8.99 73.84 -8.99C71.34 -8.99 69.25 -9.64 67.57 -10.93C65.89 -12.21 64.6 -14.36 63.7 -17.38C62.81 -20.39 62.36 -24.42 62.36 -29.47C62.36 -34.33 62.81 -38.23 63.7 -41.16C64.6 -44.09 65.89 -46.2 67.57 -47.47C69.25 -48.75 71.34 -49.38 73.84 -49.38C76.34 -49.38 78.43 -48.74 80.11 -47.45C81.79 -46.16 83.08 -44.01 83.98 -41C84.87 -37.99 85.32 -33.96 85.32 -28.91C85.32 -24.05 84.86 -20.15 83.96 -17.22C83.05 -14.29 81.76 -12.18 80.07 -10.91Z M145.47 -58.38L145.47 -19.6L123.97 -58.38L112.22 -58.38L112.22 0L123.19 0L123.19 -38.77L144.68 0L156.44 0L156.44 -58.38Z"/></g></g></svg>
